%TF.GenerationSoftware,KiCad,Pcbnew,10.0.3*%
%TF.CreationDate,2026-06-25T11:23:25-04:00*%
%TF.ProjectId,HackPad Orgins,4861636b-5061-4642-904f-7267696e732e,rev?*%
%TF.SameCoordinates,Original*%
%TF.FileFunction,Legend,Top*%
%TF.FilePolarity,Positive*%
%FSLAX46Y46*%
G04 Gerber Fmt 4.6, Leading zero omitted, Abs format (unit mm)*
G04 Created by KiCad (PCBNEW 10.0.3) date 2026-06-25 11:23:25*
%MOMM*%
%LPD*%
G01*
G04 APERTURE LIST*
%ADD10C,0.150000*%
%ADD11C,0.120000*%
G04 APERTURE END LIST*
D10*
X174166666Y-106304819D02*
X173833333Y-105828628D01*
X173595238Y-106304819D02*
X173595238Y-105304819D01*
X173595238Y-105304819D02*
X173976190Y-105304819D01*
X173976190Y-105304819D02*
X174071428Y-105352438D01*
X174071428Y-105352438D02*
X174119047Y-105400057D01*
X174119047Y-105400057D02*
X174166666Y-105495295D01*
X174166666Y-105495295D02*
X174166666Y-105638152D01*
X174166666Y-105638152D02*
X174119047Y-105733390D01*
X174119047Y-105733390D02*
X174071428Y-105781009D01*
X174071428Y-105781009D02*
X173976190Y-105828628D01*
X173976190Y-105828628D02*
X173595238Y-105828628D01*
X174595238Y-105781009D02*
X174928571Y-105781009D01*
X175071428Y-106304819D02*
X174595238Y-106304819D01*
X174595238Y-106304819D02*
X174595238Y-105304819D01*
X174595238Y-105304819D02*
X175071428Y-105304819D01*
X175833333Y-105781009D02*
X175500000Y-105781009D01*
X175500000Y-106304819D02*
X175500000Y-105304819D01*
X175500000Y-105304819D02*
X175976190Y-105304819D01*
X176500000Y-105304819D02*
X176500000Y-105542914D01*
X176261905Y-105447676D02*
X176500000Y-105542914D01*
X176500000Y-105542914D02*
X176738095Y-105447676D01*
X176357143Y-105733390D02*
X176500000Y-105542914D01*
X176500000Y-105542914D02*
X176642857Y-105733390D01*
X177261905Y-105304819D02*
X177261905Y-105542914D01*
X177023810Y-105447676D02*
X177261905Y-105542914D01*
X177261905Y-105542914D02*
X177500000Y-105447676D01*
X177119048Y-105733390D02*
X177261905Y-105542914D01*
X177261905Y-105542914D02*
X177404762Y-105733390D01*
X117666666Y-106304819D02*
X117333333Y-105828628D01*
X117095238Y-106304819D02*
X117095238Y-105304819D01*
X117095238Y-105304819D02*
X117476190Y-105304819D01*
X117476190Y-105304819D02*
X117571428Y-105352438D01*
X117571428Y-105352438D02*
X117619047Y-105400057D01*
X117619047Y-105400057D02*
X117666666Y-105495295D01*
X117666666Y-105495295D02*
X117666666Y-105638152D01*
X117666666Y-105638152D02*
X117619047Y-105733390D01*
X117619047Y-105733390D02*
X117571428Y-105781009D01*
X117571428Y-105781009D02*
X117476190Y-105828628D01*
X117476190Y-105828628D02*
X117095238Y-105828628D01*
X118095238Y-105781009D02*
X118428571Y-105781009D01*
X118571428Y-106304819D02*
X118095238Y-106304819D01*
X118095238Y-106304819D02*
X118095238Y-105304819D01*
X118095238Y-105304819D02*
X118571428Y-105304819D01*
X119333333Y-105781009D02*
X119000000Y-105781009D01*
X119000000Y-106304819D02*
X119000000Y-105304819D01*
X119000000Y-105304819D02*
X119476190Y-105304819D01*
X120000000Y-105304819D02*
X120000000Y-105542914D01*
X119761905Y-105447676D02*
X120000000Y-105542914D01*
X120000000Y-105542914D02*
X120238095Y-105447676D01*
X119857143Y-105733390D02*
X120000000Y-105542914D01*
X120000000Y-105542914D02*
X120142857Y-105733390D01*
X120761905Y-105304819D02*
X120761905Y-105542914D01*
X120523810Y-105447676D02*
X120761905Y-105542914D01*
X120761905Y-105542914D02*
X121000000Y-105447676D01*
X120619048Y-105733390D02*
X120761905Y-105542914D01*
X120761905Y-105542914D02*
X120904762Y-105733390D01*
X117666666Y-49804819D02*
X117333333Y-49328628D01*
X117095238Y-49804819D02*
X117095238Y-48804819D01*
X117095238Y-48804819D02*
X117476190Y-48804819D01*
X117476190Y-48804819D02*
X117571428Y-48852438D01*
X117571428Y-48852438D02*
X117619047Y-48900057D01*
X117619047Y-48900057D02*
X117666666Y-48995295D01*
X117666666Y-48995295D02*
X117666666Y-49138152D01*
X117666666Y-49138152D02*
X117619047Y-49233390D01*
X117619047Y-49233390D02*
X117571428Y-49281009D01*
X117571428Y-49281009D02*
X117476190Y-49328628D01*
X117476190Y-49328628D02*
X117095238Y-49328628D01*
X118095238Y-49281009D02*
X118428571Y-49281009D01*
X118571428Y-49804819D02*
X118095238Y-49804819D01*
X118095238Y-49804819D02*
X118095238Y-48804819D01*
X118095238Y-48804819D02*
X118571428Y-48804819D01*
X119333333Y-49281009D02*
X119000000Y-49281009D01*
X119000000Y-49804819D02*
X119000000Y-48804819D01*
X119000000Y-48804819D02*
X119476190Y-48804819D01*
X120000000Y-48804819D02*
X120000000Y-49042914D01*
X119761905Y-48947676D02*
X120000000Y-49042914D01*
X120000000Y-49042914D02*
X120238095Y-48947676D01*
X119857143Y-49233390D02*
X120000000Y-49042914D01*
X120000000Y-49042914D02*
X120142857Y-49233390D01*
X120761905Y-48804819D02*
X120761905Y-49042914D01*
X120523810Y-48947676D02*
X120761905Y-49042914D01*
X120761905Y-49042914D02*
X121000000Y-48947676D01*
X120619048Y-49233390D02*
X120761905Y-49042914D01*
X120761905Y-49042914D02*
X120904762Y-49233390D01*
X126936667Y-68733200D02*
X127079524Y-68780819D01*
X127079524Y-68780819D02*
X127317619Y-68780819D01*
X127317619Y-68780819D02*
X127412857Y-68733200D01*
X127412857Y-68733200D02*
X127460476Y-68685580D01*
X127460476Y-68685580D02*
X127508095Y-68590342D01*
X127508095Y-68590342D02*
X127508095Y-68495104D01*
X127508095Y-68495104D02*
X127460476Y-68399866D01*
X127460476Y-68399866D02*
X127412857Y-68352247D01*
X127412857Y-68352247D02*
X127317619Y-68304628D01*
X127317619Y-68304628D02*
X127127143Y-68257009D01*
X127127143Y-68257009D02*
X127031905Y-68209390D01*
X127031905Y-68209390D02*
X126984286Y-68161771D01*
X126984286Y-68161771D02*
X126936667Y-68066533D01*
X126936667Y-68066533D02*
X126936667Y-67971295D01*
X126936667Y-67971295D02*
X126984286Y-67876057D01*
X126984286Y-67876057D02*
X127031905Y-67828438D01*
X127031905Y-67828438D02*
X127127143Y-67780819D01*
X127127143Y-67780819D02*
X127365238Y-67780819D01*
X127365238Y-67780819D02*
X127508095Y-67828438D01*
X127841429Y-67780819D02*
X128079524Y-68780819D01*
X128079524Y-68780819D02*
X128270000Y-68066533D01*
X128270000Y-68066533D02*
X128460476Y-68780819D01*
X128460476Y-68780819D02*
X128698572Y-67780819D01*
X129603333Y-68780819D02*
X129031905Y-68780819D01*
X129317619Y-68780819D02*
X129317619Y-67780819D01*
X129317619Y-67780819D02*
X129222381Y-67923676D01*
X129222381Y-67923676D02*
X129127143Y-68018914D01*
X129127143Y-68018914D02*
X129031905Y-68066533D01*
X165036667Y-68733200D02*
X165179524Y-68780819D01*
X165179524Y-68780819D02*
X165417619Y-68780819D01*
X165417619Y-68780819D02*
X165512857Y-68733200D01*
X165512857Y-68733200D02*
X165560476Y-68685580D01*
X165560476Y-68685580D02*
X165608095Y-68590342D01*
X165608095Y-68590342D02*
X165608095Y-68495104D01*
X165608095Y-68495104D02*
X165560476Y-68399866D01*
X165560476Y-68399866D02*
X165512857Y-68352247D01*
X165512857Y-68352247D02*
X165417619Y-68304628D01*
X165417619Y-68304628D02*
X165227143Y-68257009D01*
X165227143Y-68257009D02*
X165131905Y-68209390D01*
X165131905Y-68209390D02*
X165084286Y-68161771D01*
X165084286Y-68161771D02*
X165036667Y-68066533D01*
X165036667Y-68066533D02*
X165036667Y-67971295D01*
X165036667Y-67971295D02*
X165084286Y-67876057D01*
X165084286Y-67876057D02*
X165131905Y-67828438D01*
X165131905Y-67828438D02*
X165227143Y-67780819D01*
X165227143Y-67780819D02*
X165465238Y-67780819D01*
X165465238Y-67780819D02*
X165608095Y-67828438D01*
X165941429Y-67780819D02*
X166179524Y-68780819D01*
X166179524Y-68780819D02*
X166370000Y-68066533D01*
X166370000Y-68066533D02*
X166560476Y-68780819D01*
X166560476Y-68780819D02*
X166798572Y-67780819D01*
X167084286Y-67780819D02*
X167703333Y-67780819D01*
X167703333Y-67780819D02*
X167370000Y-68161771D01*
X167370000Y-68161771D02*
X167512857Y-68161771D01*
X167512857Y-68161771D02*
X167608095Y-68209390D01*
X167608095Y-68209390D02*
X167655714Y-68257009D01*
X167655714Y-68257009D02*
X167703333Y-68352247D01*
X167703333Y-68352247D02*
X167703333Y-68590342D01*
X167703333Y-68590342D02*
X167655714Y-68685580D01*
X167655714Y-68685580D02*
X167608095Y-68733200D01*
X167608095Y-68733200D02*
X167512857Y-68780819D01*
X167512857Y-68780819D02*
X167227143Y-68780819D01*
X167227143Y-68780819D02*
X167131905Y-68733200D01*
X167131905Y-68733200D02*
X167084286Y-68685580D01*
X135421428Y-53054819D02*
X135611904Y-53054819D01*
X135611904Y-53054819D02*
X135707142Y-53102438D01*
X135707142Y-53102438D02*
X135802380Y-53197676D01*
X135802380Y-53197676D02*
X135849999Y-53388152D01*
X135849999Y-53388152D02*
X135849999Y-53721485D01*
X135849999Y-53721485D02*
X135802380Y-53911961D01*
X135802380Y-53911961D02*
X135707142Y-54007200D01*
X135707142Y-54007200D02*
X135611904Y-54054819D01*
X135611904Y-54054819D02*
X135421428Y-54054819D01*
X135421428Y-54054819D02*
X135326190Y-54007200D01*
X135326190Y-54007200D02*
X135230952Y-53911961D01*
X135230952Y-53911961D02*
X135183333Y-53721485D01*
X135183333Y-53721485D02*
X135183333Y-53388152D01*
X135183333Y-53388152D02*
X135230952Y-53197676D01*
X135230952Y-53197676D02*
X135326190Y-53102438D01*
X135326190Y-53102438D02*
X135421428Y-53054819D01*
X136754761Y-54054819D02*
X136278571Y-54054819D01*
X136278571Y-54054819D02*
X136278571Y-53054819D01*
X137088095Y-53531009D02*
X137421428Y-53531009D01*
X137564285Y-54054819D02*
X137088095Y-54054819D01*
X137088095Y-54054819D02*
X137088095Y-53054819D01*
X137088095Y-53054819D02*
X137564285Y-53054819D01*
X137992857Y-54054819D02*
X137992857Y-53054819D01*
X137992857Y-53054819D02*
X138230952Y-53054819D01*
X138230952Y-53054819D02*
X138373809Y-53102438D01*
X138373809Y-53102438D02*
X138469047Y-53197676D01*
X138469047Y-53197676D02*
X138516666Y-53292914D01*
X138516666Y-53292914D02*
X138564285Y-53483390D01*
X138564285Y-53483390D02*
X138564285Y-53626247D01*
X138564285Y-53626247D02*
X138516666Y-53816723D01*
X138516666Y-53816723D02*
X138469047Y-53911961D01*
X138469047Y-53911961D02*
X138373809Y-54007200D01*
X138373809Y-54007200D02*
X138230952Y-54054819D01*
X138230952Y-54054819D02*
X137992857Y-54054819D01*
X139516666Y-54054819D02*
X138945238Y-54054819D01*
X139230952Y-54054819D02*
X139230952Y-53054819D01*
X139230952Y-53054819D02*
X139135714Y-53197676D01*
X139135714Y-53197676D02*
X139040476Y-53292914D01*
X139040476Y-53292914D02*
X138945238Y-53340533D01*
X162238094Y-52907200D02*
X162380951Y-52954819D01*
X162380951Y-52954819D02*
X162619046Y-52954819D01*
X162619046Y-52954819D02*
X162714284Y-52907200D01*
X162714284Y-52907200D02*
X162761903Y-52859580D01*
X162761903Y-52859580D02*
X162809522Y-52764342D01*
X162809522Y-52764342D02*
X162809522Y-52669104D01*
X162809522Y-52669104D02*
X162761903Y-52573866D01*
X162761903Y-52573866D02*
X162714284Y-52526247D01*
X162714284Y-52526247D02*
X162619046Y-52478628D01*
X162619046Y-52478628D02*
X162428570Y-52431009D01*
X162428570Y-52431009D02*
X162333332Y-52383390D01*
X162333332Y-52383390D02*
X162285713Y-52335771D01*
X162285713Y-52335771D02*
X162238094Y-52240533D01*
X162238094Y-52240533D02*
X162238094Y-52145295D01*
X162238094Y-52145295D02*
X162285713Y-52050057D01*
X162285713Y-52050057D02*
X162333332Y-52002438D01*
X162333332Y-52002438D02*
X162428570Y-51954819D01*
X162428570Y-51954819D02*
X162666665Y-51954819D01*
X162666665Y-51954819D02*
X162809522Y-52002438D01*
X163380951Y-52954819D02*
X163285713Y-52907200D01*
X163285713Y-52907200D02*
X163238094Y-52859580D01*
X163238094Y-52859580D02*
X163190475Y-52764342D01*
X163190475Y-52764342D02*
X163190475Y-52478628D01*
X163190475Y-52478628D02*
X163238094Y-52383390D01*
X163238094Y-52383390D02*
X163285713Y-52335771D01*
X163285713Y-52335771D02*
X163380951Y-52288152D01*
X163380951Y-52288152D02*
X163523808Y-52288152D01*
X163523808Y-52288152D02*
X163619046Y-52335771D01*
X163619046Y-52335771D02*
X163666665Y-52383390D01*
X163666665Y-52383390D02*
X163714284Y-52478628D01*
X163714284Y-52478628D02*
X163714284Y-52764342D01*
X163714284Y-52764342D02*
X163666665Y-52859580D01*
X163666665Y-52859580D02*
X163619046Y-52907200D01*
X163619046Y-52907200D02*
X163523808Y-52954819D01*
X163523808Y-52954819D02*
X163380951Y-52954819D01*
X164142856Y-52954819D02*
X164142856Y-52288152D01*
X164142856Y-51954819D02*
X164095237Y-52002438D01*
X164095237Y-52002438D02*
X164142856Y-52050057D01*
X164142856Y-52050057D02*
X164190475Y-52002438D01*
X164190475Y-52002438D02*
X164142856Y-51954819D01*
X164142856Y-51954819D02*
X164142856Y-52050057D01*
X164761903Y-52954819D02*
X164666665Y-52907200D01*
X164666665Y-52907200D02*
X164619046Y-52811961D01*
X164619046Y-52811961D02*
X164619046Y-51954819D01*
X165142856Y-52954819D02*
X165142856Y-51954819D01*
X165142856Y-51954819D02*
X165380951Y-51954819D01*
X165380951Y-51954819D02*
X165523808Y-52002438D01*
X165523808Y-52002438D02*
X165619046Y-52097676D01*
X165619046Y-52097676D02*
X165666665Y-52192914D01*
X165666665Y-52192914D02*
X165714284Y-52383390D01*
X165714284Y-52383390D02*
X165714284Y-52526247D01*
X165714284Y-52526247D02*
X165666665Y-52716723D01*
X165666665Y-52716723D02*
X165619046Y-52811961D01*
X165619046Y-52811961D02*
X165523808Y-52907200D01*
X165523808Y-52907200D02*
X165380951Y-52954819D01*
X165380951Y-52954819D02*
X165142856Y-52954819D01*
X166523808Y-52907200D02*
X166428570Y-52954819D01*
X166428570Y-52954819D02*
X166238094Y-52954819D01*
X166238094Y-52954819D02*
X166142856Y-52907200D01*
X166142856Y-52907200D02*
X166095237Y-52811961D01*
X166095237Y-52811961D02*
X166095237Y-52431009D01*
X166095237Y-52431009D02*
X166142856Y-52335771D01*
X166142856Y-52335771D02*
X166238094Y-52288152D01*
X166238094Y-52288152D02*
X166428570Y-52288152D01*
X166428570Y-52288152D02*
X166523808Y-52335771D01*
X166523808Y-52335771D02*
X166571427Y-52431009D01*
X166571427Y-52431009D02*
X166571427Y-52526247D01*
X166571427Y-52526247D02*
X166095237Y-52621485D01*
X167428570Y-52907200D02*
X167333332Y-52954819D01*
X167333332Y-52954819D02*
X167142856Y-52954819D01*
X167142856Y-52954819D02*
X167047618Y-52907200D01*
X167047618Y-52907200D02*
X166999999Y-52859580D01*
X166999999Y-52859580D02*
X166952380Y-52764342D01*
X166952380Y-52764342D02*
X166952380Y-52478628D01*
X166952380Y-52478628D02*
X166999999Y-52383390D01*
X166999999Y-52383390D02*
X167047618Y-52335771D01*
X167047618Y-52335771D02*
X167142856Y-52288152D01*
X167142856Y-52288152D02*
X167333332Y-52288152D01*
X167333332Y-52288152D02*
X167428570Y-52335771D01*
X167714285Y-52288152D02*
X168095237Y-52288152D01*
X167857142Y-51954819D02*
X167857142Y-52811961D01*
X167857142Y-52811961D02*
X167904761Y-52907200D01*
X167904761Y-52907200D02*
X167999999Y-52954819D01*
X167999999Y-52954819D02*
X168095237Y-52954819D01*
X168809523Y-52907200D02*
X168714285Y-52954819D01*
X168714285Y-52954819D02*
X168523809Y-52954819D01*
X168523809Y-52954819D02*
X168428571Y-52907200D01*
X168428571Y-52907200D02*
X168380952Y-52811961D01*
X168380952Y-52811961D02*
X168380952Y-52431009D01*
X168380952Y-52431009D02*
X168428571Y-52335771D01*
X168428571Y-52335771D02*
X168523809Y-52288152D01*
X168523809Y-52288152D02*
X168714285Y-52288152D01*
X168714285Y-52288152D02*
X168809523Y-52335771D01*
X168809523Y-52335771D02*
X168857142Y-52431009D01*
X168857142Y-52431009D02*
X168857142Y-52526247D01*
X168857142Y-52526247D02*
X168380952Y-52621485D01*
X169714285Y-52907200D02*
X169619047Y-52954819D01*
X169619047Y-52954819D02*
X169428571Y-52954819D01*
X169428571Y-52954819D02*
X169333333Y-52907200D01*
X169333333Y-52907200D02*
X169285714Y-52859580D01*
X169285714Y-52859580D02*
X169238095Y-52764342D01*
X169238095Y-52764342D02*
X169238095Y-52478628D01*
X169238095Y-52478628D02*
X169285714Y-52383390D01*
X169285714Y-52383390D02*
X169333333Y-52335771D01*
X169333333Y-52335771D02*
X169428571Y-52288152D01*
X169428571Y-52288152D02*
X169619047Y-52288152D01*
X169619047Y-52288152D02*
X169714285Y-52335771D01*
X170000000Y-52288152D02*
X170380952Y-52288152D01*
X170142857Y-51954819D02*
X170142857Y-52811961D01*
X170142857Y-52811961D02*
X170190476Y-52907200D01*
X170190476Y-52907200D02*
X170285714Y-52954819D01*
X170285714Y-52954819D02*
X170380952Y-52954819D01*
X170857143Y-52954819D02*
X170761905Y-52907200D01*
X170761905Y-52907200D02*
X170714286Y-52859580D01*
X170714286Y-52859580D02*
X170666667Y-52764342D01*
X170666667Y-52764342D02*
X170666667Y-52478628D01*
X170666667Y-52478628D02*
X170714286Y-52383390D01*
X170714286Y-52383390D02*
X170761905Y-52335771D01*
X170761905Y-52335771D02*
X170857143Y-52288152D01*
X170857143Y-52288152D02*
X171000000Y-52288152D01*
X171000000Y-52288152D02*
X171095238Y-52335771D01*
X171095238Y-52335771D02*
X171142857Y-52383390D01*
X171142857Y-52383390D02*
X171190476Y-52478628D01*
X171190476Y-52478628D02*
X171190476Y-52764342D01*
X171190476Y-52764342D02*
X171142857Y-52859580D01*
X171142857Y-52859580D02*
X171095238Y-52907200D01*
X171095238Y-52907200D02*
X171000000Y-52954819D01*
X171000000Y-52954819D02*
X170857143Y-52954819D01*
X171619048Y-52954819D02*
X171619048Y-52288152D01*
X171619048Y-52478628D02*
X171666667Y-52383390D01*
X171666667Y-52383390D02*
X171714286Y-52335771D01*
X171714286Y-52335771D02*
X171809524Y-52288152D01*
X171809524Y-52288152D02*
X171904762Y-52288152D01*
X172761905Y-52954819D02*
X172190477Y-52954819D01*
X172476191Y-52954819D02*
X172476191Y-51954819D01*
X172476191Y-51954819D02*
X172380953Y-52097676D01*
X172380953Y-52097676D02*
X172285715Y-52192914D01*
X172285715Y-52192914D02*
X172190477Y-52240533D01*
X145986667Y-68733200D02*
X146129524Y-68780819D01*
X146129524Y-68780819D02*
X146367619Y-68780819D01*
X146367619Y-68780819D02*
X146462857Y-68733200D01*
X146462857Y-68733200D02*
X146510476Y-68685580D01*
X146510476Y-68685580D02*
X146558095Y-68590342D01*
X146558095Y-68590342D02*
X146558095Y-68495104D01*
X146558095Y-68495104D02*
X146510476Y-68399866D01*
X146510476Y-68399866D02*
X146462857Y-68352247D01*
X146462857Y-68352247D02*
X146367619Y-68304628D01*
X146367619Y-68304628D02*
X146177143Y-68257009D01*
X146177143Y-68257009D02*
X146081905Y-68209390D01*
X146081905Y-68209390D02*
X146034286Y-68161771D01*
X146034286Y-68161771D02*
X145986667Y-68066533D01*
X145986667Y-68066533D02*
X145986667Y-67971295D01*
X145986667Y-67971295D02*
X146034286Y-67876057D01*
X146034286Y-67876057D02*
X146081905Y-67828438D01*
X146081905Y-67828438D02*
X146177143Y-67780819D01*
X146177143Y-67780819D02*
X146415238Y-67780819D01*
X146415238Y-67780819D02*
X146558095Y-67828438D01*
X146891429Y-67780819D02*
X147129524Y-68780819D01*
X147129524Y-68780819D02*
X147320000Y-68066533D01*
X147320000Y-68066533D02*
X147510476Y-68780819D01*
X147510476Y-68780819D02*
X147748572Y-67780819D01*
X148081905Y-67876057D02*
X148129524Y-67828438D01*
X148129524Y-67828438D02*
X148224762Y-67780819D01*
X148224762Y-67780819D02*
X148462857Y-67780819D01*
X148462857Y-67780819D02*
X148558095Y-67828438D01*
X148558095Y-67828438D02*
X148605714Y-67876057D01*
X148605714Y-67876057D02*
X148653333Y-67971295D01*
X148653333Y-67971295D02*
X148653333Y-68066533D01*
X148653333Y-68066533D02*
X148605714Y-68209390D01*
X148605714Y-68209390D02*
X148034286Y-68780819D01*
X148034286Y-68780819D02*
X148653333Y-68780819D01*
%TO.C,SW1*%
D11*
X121285000Y-69215000D02*
X135255000Y-69215000D01*
X121285000Y-83185000D02*
X121285000Y-69215000D01*
X135255000Y-69215000D02*
X135255000Y-83185000D01*
X135255000Y-83185000D02*
X121285000Y-83185000D01*
%TO.C,SW3*%
X159385000Y-69215000D02*
X173355000Y-69215000D01*
X159385000Y-83185000D02*
X159385000Y-69215000D01*
X173355000Y-69215000D02*
X173355000Y-83185000D01*
X173355000Y-83185000D02*
X159385000Y-83185000D01*
%TO.C,OLED1*%
X132000000Y-54550000D02*
X137750000Y-54550000D01*
X132000000Y-60550000D02*
X132000000Y-54550000D01*
X133350000Y-59440000D02*
X138430000Y-59440000D01*
X133350000Y-60450000D02*
X133350000Y-59440000D01*
X138430000Y-59440000D02*
X138430000Y-60450000D01*
X139100000Y-54600000D02*
X142300000Y-54600000D01*
X142300000Y-54600000D02*
X142300000Y-60550000D01*
X142300000Y-60550000D02*
X132000000Y-60550000D01*
%TO.C,SoilDectector1*%
X162480000Y-54550000D02*
X168230000Y-54550000D01*
X162480000Y-60550000D02*
X162480000Y-54550000D01*
X163830000Y-59440000D02*
X168910000Y-59440000D01*
X163830000Y-60450000D02*
X163830000Y-59440000D01*
X168910000Y-59440000D02*
X168910000Y-60450000D01*
X169580000Y-54600000D02*
X172780000Y-54600000D01*
X172780000Y-54600000D02*
X172780000Y-60550000D01*
X172780000Y-60550000D02*
X162480000Y-60550000D01*
%TO.C,SW2*%
X140335000Y-69215000D02*
X154305000Y-69215000D01*
X140335000Y-83185000D02*
X140335000Y-69215000D01*
X154305000Y-69215000D02*
X154305000Y-83185000D01*
X154305000Y-83185000D02*
X140335000Y-83185000D01*
%TD*%
M02*
