M48
; DRILL file KiCad 10.0.3 date 2026-06-25T11:23:36
; FORMAT={-:-/ absolute / metric / decimal}
; #@! TF.CreationDate,2026-06-25T11:23:36-04:00
; #@! TF.GenerationSoftware,Kicad,Pcbnew,10.0.3
; #@! TF.FileFunction,Plated,1,2,PTH
FMAT,2
METRIC
; #@! TA.AperFunction,Plated,PTH,ComponentDrill
T1C1.000
; #@! TA.AperFunction,Plated,PTH,ComponentDrill
T2C1.020
; #@! TA.AperFunction,Plated,PTH,ComponentDrill
T3C1.500
%
G90
G05
T1
X137.15Y-90.17
X137.15Y-92.71
X137.15Y-95.25
X137.15Y-97.79
X137.15Y-100.33
X137.15Y-102.87
X137.15Y-105.41
X152.4Y-90.17
X152.4Y-92.71
X152.4Y-95.25
X152.4Y-97.79
X152.4Y-100.33
X152.4Y-102.87
X152.4Y-105.41
T2
X133.35Y-57.15
X135.89Y-57.15
X138.43Y-57.15
X140.97Y-57.15
X163.83Y-57.15
X166.37Y-57.15
X168.91Y-57.15
X171.45Y-57.15
T3
X124.46Y-73.66
X130.81Y-71.12
X143.51Y-73.66
X149.86Y-71.12
X162.56Y-73.66
X168.91Y-71.12
M30
