%TF.GenerationSoftware,KiCad,Pcbnew,10.0.3*%
%TF.CreationDate,2026-06-25T11:23:25-04:00*%
%TF.ProjectId,HackPad Orgins,4861636b-5061-4642-904f-7267696e732e,rev?*%
%TF.SameCoordinates,Original*%
%TF.FileFunction,Soldermask,Bot*%
%TF.FilePolarity,Negative*%
%FSLAX46Y46*%
G04 Gerber Fmt 4.6, Leading zero omitted, Abs format (unit mm)*
G04 Created by KiCad (PCBNEW 10.0.3) date 2026-06-25 11:23:25*
%MOMM*%
%LPD*%
G01*
G04 APERTURE LIST*
%ADD10C,2.700000*%
%ADD11C,1.700000*%
%ADD12C,4.000000*%
%ADD13C,2.200000*%
%ADD14C,1.100000*%
%ADD15R,1.730000X2.030000*%
%ADD16O,1.730000X2.030000*%
%ADD17R,3.500000X1.700000*%
%ADD18O,3.600000X1.700000*%
%ADD19O,3.700000X1.700000*%
G04 APERTURE END LIST*
D10*
%TO.C,REF\u002A\u002A*%
X175500000Y-109500000D03*
%TD*%
%TO.C,REF\u002A\u002A*%
X119000000Y-109500000D03*
%TD*%
%TO.C,REF\u002A\u002A*%
X119000000Y-53000000D03*
%TD*%
D11*
%TO.C,SW1*%
X123190000Y-76200000D03*
D12*
X128270000Y-76200000D03*
D11*
X133350000Y-76200000D03*
D13*
X130810000Y-71120000D03*
X124460000Y-73660000D03*
%TD*%
D11*
%TO.C,SW3*%
X161290000Y-76200000D03*
D12*
X166370000Y-76200000D03*
D11*
X171450000Y-76200000D03*
D13*
X168910000Y-71120000D03*
X162560000Y-73660000D03*
%TD*%
D14*
%TO.C,OLED1*%
X138430000Y-54990000D03*
D15*
X133350000Y-57150000D03*
D16*
X135890000Y-57150000D03*
X138430000Y-57150000D03*
X140970000Y-57150000D03*
%TD*%
D14*
%TO.C,SoilDectector1*%
X168910000Y-54990000D03*
D15*
X163830000Y-57150000D03*
D16*
X166370000Y-57150000D03*
X168910000Y-57150000D03*
X171450000Y-57150000D03*
%TD*%
D11*
%TO.C,SW2*%
X142240000Y-76200000D03*
D12*
X147320000Y-76200000D03*
D11*
X152400000Y-76200000D03*
D13*
X149860000Y-71120000D03*
X143510000Y-73660000D03*
%TD*%
D17*
%TO.C,U1*%
X136150000Y-105410000D03*
D18*
X136150000Y-102870000D03*
X136150000Y-100330000D03*
X136150000Y-97790000D03*
X136150000Y-95250000D03*
X136150000Y-92710000D03*
X136150000Y-90170000D03*
X153400000Y-90170000D03*
X153400000Y-92710000D03*
X153400000Y-95250000D03*
D19*
X153400000Y-97790000D03*
X153400000Y-100330000D03*
X153400000Y-102870000D03*
X153400000Y-105410000D03*
%TD*%
M02*
